<?xml version="1.0" encoding="utf-8"?><!-- Uploaded to: SVG Repo, www.svgrepo.com, Generator: SVG Repo Mixer Tools -->
<svg fill="#000000" width="800px" height="800px" viewBox="0 0 24 24" id="responsive" data-name="Flat Color" xmlns="http://www.w3.org/2000/svg" class="icon flat-color"><path id="primary" d="M3,14V4A2,2,0,0,1,5,2H19a2,2,0,0,1,2,2V6a1,1,0,0,1-1,1H13a3,3,0,0,0-3,3v7a1,1,0,0,1-1,1H4a2,2,0,0,1-2-2V15A1,1,0,0,1,3,14Z" style="fill: rgb(0, 0, 0);"></path><path id="secondary" d="M3,14h7v3a1,1,0,0,1-1,1H4a2,2,0,0,1-2-2V15A1,1,0,0,1,3,14ZM20,8H13a2,2,0,0,0-2,2V20a2,2,0,0,0,2,2h7a2,2,0,0,0,2-2V10A2,2,0,0,0,20,8Z" style="fill: rgb(44, 169, 188);"></path><path id="primary-2" data-name="primary" d="M13.72,8,14,9.24A1,1,0,0,0,15,10h3a1,1,0,0,0,1-.76L19.28,8Z" style="fill: rgb(0, 0, 0);"></path></svg>